<?xml version="1.0" encoding="utf-8"?>
<!-- Generator: Adobe Illustrator 21.0.2, SVG Export Plug-In . SVG Version: 6.00 Build 0)  -->
<svg version="1.1" id="Layer_1" xmlns="http://www.w3.org/2000/svg" xmlns:xlink="http://www.w3.org/1999/xlink" x="0px" y="0px"
	 viewBox="0 0 190.9 44.1" style="enable-background:new 0 0 190.9 44.1;" xml:space="preserve">
<style type="text/css">
	.st0{fill:#FFFFFF;}
</style>
<path d="M3.7,36.4h1.2l2,3c0.3,0.4,0.5,0.7,0.7,1l0,0c0.2-0.3,0.4-0.6,0.6-1.1l1.9-2.9h1.1v7.5H10v-4.5c0-0.3,0-0.8,0-1.1l0,0
	c-0.1,0.3-0.4,0.7-0.5,0.9l-1.6,2.5H7.3l-1.8-2.6c-0.2-0.2-0.4-0.5-0.5-0.8l0,0c0,0.3,0,0.8,0,1.1v4.5H3.8L3.7,36.4L3.7,36.4z"/>
<path d="M15,36.8c0-0.4,0.3-0.7,0.7-0.7s0.7,0.3,0.7,0.7s-0.3,0.7-0.7,0.7C15.3,37.5,15,37.2,15,36.8 M15.2,38.5h1.2v5.4h-1.2V38.5z
	"/>
<path d="M20.1,38.5h1l0.1,0.6c0.6-0.5,1.2-0.8,1.9-0.8c0.9,0,1.7,0.5,1.7,2v3.6h-1.2v-3.2c0-0.7-0.2-1.3-0.9-1.3
	c-0.5,0-1,0.3-1.4,0.7v3.8h-1.2C20.1,43.9,20.1,38.5,20.1,38.5z"/>
<path d="M28.1,41.2c0-1.6,0.9-2.8,2.4-2.8c1.5,0,2.3,1.1,2.3,2.9v0.3h-3.5c0,0.9,0.6,1.6,1.6,1.6c0.5,0,1-0.2,1.4-0.4l0.4,0.8
	c-0.5,0.3-1.2,0.5-1.8,0.5C29,44.1,28.1,42.7,28.1,41.2 M31.6,40.7c0-0.7-0.4-1.4-1.1-1.4c-0.7,0-1.1,0.6-1.2,1.4H31.6z"/>
<path d="M36.2,38.5h1l0.1,0.6c0.5-0.5,1-0.8,1.5-0.8c0.2,0,0.5,0.1,0.7,0.2l-0.4,1c-0.2-0.1-0.4-0.1-0.6-0.1c-0.4,0-0.7,0.2-1.2,0.6
	v3.9h-1.2L36.2,38.5L36.2,38.5z"/>
<path d="M45.6,43.4c-0.4,0.4-0.9,0.7-1.6,0.7c-1,0-1.8-0.7-1.8-1.7c0-0.7,0.4-1.2,0.9-1.5c0.4-0.2,0.8-0.3,1.4-0.3h1v-0.2
	c0-0.7-0.4-1-1.1-1c-0.6,0-1.1,0.2-1.4,0.4l-0.4-0.9c0.6-0.4,1.3-0.5,2-0.5c1.3,0,2.1,0.6,2.1,1.9v2.1c0,0.8,0,1.3,0.1,1.5h-1
	L45.6,43.4z M44.7,41.4c-0.4,0-0.7,0.1-0.9,0.2c-0.3,0.1-0.4,0.4-0.4,0.7c0,0.5,0.3,0.8,0.9,0.8c0.5,0,1-0.3,1.2-0.5v-1.2H44.7z"/>
<path d="M50.4,35.8h1.2v6.6c0,0.4,0.1,0.5,0.4,0.5c0.1,0,0.2,0,0.3-0.1l0.2,0.9c-0.3,0.1-0.6,0.2-0.9,0.2c-0.8,0-1.3-0.4-1.3-1.2
	v-6.9H50.4z"/>
<path d="M55.7,36.8c0-0.4,0.3-0.7,0.7-0.7c0.4,0,0.7,0.3,0.7,0.7s-0.3,0.7-0.7,0.7C56,37.5,55.7,37.2,55.7,36.8 M55.8,38.5H57v5.4
	h-1.2V38.5z"/>
<polygon points="62.8,39.5 60.7,39.5 60.4,38.5 64.6,38.5 62,43 64.6,43 64.6,43.9 60.3,43.9 "/>
<path d="M67.4,41.2c0-1.6,0.9-2.8,2.4-2.8s2.3,1.1,2.3,2.9v0.3h-3.5c0,0.9,0.6,1.6,1.6,1.6c0.5,0,1-0.2,1.4-0.4l0.4,0.8
	c-0.5,0.3-1.2,0.5-1.8,0.5C68.2,44.1,67.4,42.7,67.4,41.2 M70.9,40.7c0-0.7-0.4-1.4-1.1-1.4s-1.1,0.6-1.2,1.4H70.9z"/>
<path d="M75.2,41.3c0-1.7,1.3-2.9,2.9-2.9c0.2,0,0.6,0,0.8,0.1v-2.6h1.2v7.8c-0.5,0.3-1.2,0.4-1.9,0.4
	C76.5,44.1,75.2,43.1,75.2,41.3 M78.9,42.9v-3.5c-0.2-0.1-0.4-0.1-0.7-0.1c-1,0-1.8,0.7-1.8,1.9c0,1.1,0.7,1.8,1.8,1.8
	C78.4,43.1,78.7,43,78.9,42.9"/>
<path d="M90.6,36.4h0.9l3,7.6h-1.3l-0.7-1.9h-2.8l-0.8,1.8h-1.2L90.6,36.4z M92.1,41l-0.6-1.7c-0.2-0.6-0.3-1-0.4-1.2l0,0
	c-0.1,0.3-0.2,0.6-0.4,1.2L90.1,41H92.1z"/>
<path d="M97.6,35.8h1.2v6.6c0,0.4,0.1,0.5,0.4,0.5c0.1,0,0.2,0,0.3-0.1l0.2,0.9c-0.3,0.1-0.6,0.2-0.9,0.2c-0.8,0-1.3-0.4-1.3-1.2
	v-6.9H97.6z"/>
<polygon points="103,35.8 104.2,35.8 104.2,40.4 104.2,40.4 106.1,38.5 107.5,38.5 105.2,40.9 107.7,43.9 106.3,43.9 104.2,41.3 
	104.2,41.3 104.2,43.9 103,43.9 "/>
<path d="M113.8,43.4c-0.4,0.4-0.9,0.7-1.6,0.7c-1,0-1.8-0.7-1.8-1.7c0-0.7,0.4-1.2,0.9-1.5c0.4-0.2,0.8-0.3,1.4-0.3h1v-0.2
	c0-0.7-0.4-1-1.1-1c-0.6,0-1.1,0.2-1.4,0.4l-0.4-0.8c0.6-0.4,1.3-0.5,2-0.5c1.3,0,2.1,0.6,2.1,1.9v2.1c0,0.8,0,1.3,0.1,1.5h-1
	L113.8,43.4z M112.9,41.4c-0.4,0-0.7,0.1-0.9,0.2c-0.3,0.1-0.4,0.4-0.4,0.7c0,0.5,0.3,0.8,0.9,0.8c0.5,0,1-0.3,1.2-0.5v-1.2H112.9z"
	/>
<path d="M118.6,35.8h1.2v6.6c0,0.4,0.1,0.5,0.4,0.5c0.1,0,0.2,0,0.3-0.1l0.2,0.9c-0.3,0.1-0.6,0.2-0.9,0.2c-0.8,0-1.3-0.4-1.3-1.2
	v-6.9H118.6z"/>
<path d="M123.9,36.8c0-0.4,0.3-0.7,0.7-0.7s0.7,0.3,0.7,0.7s-0.3,0.7-0.7,0.7C124.2,37.5,123.9,37.2,123.9,36.8 M124,38.5h1.2v5.4
	H124V38.5z"/>
<path d="M128.9,38.5h1l0.1,0.6c0.6-0.5,1.2-0.8,1.9-0.8c0.9,0,1.7,0.5,1.7,2v3.6h-1.2v-3.2c0-0.7-0.2-1.3-0.9-1.3
	c-0.5,0-1,0.3-1.4,0.7v3.8h-1.2V38.5z"/>
<path d="M137,41.2c0-1.6,0.9-2.8,2.4-2.8s2.3,1.1,2.3,2.9v0.3h-3.5c0,0.9,0.6,1.6,1.6,1.6c0.5,0,1-0.2,1.4-0.4l0.4,0.8
	c-0.5,0.3-1.2,0.5-1.8,0.5C137.8,44.1,137,42.7,137,41.2 M140.5,40.7c0-0.7-0.4-1.4-1.1-1.4c-0.7,0-1.1,0.6-1.2,1.4H140.5z"/>
<path d="M148.9,36.4h1.4l1.4,4.4c0.1,0.4,0.3,0.9,0.4,1.4l0,0c0.1-0.5,0.3-0.9,0.4-1.4l1.1-3.1l-0.5-1.3h1.2l1.5,4.4
	c0.1,0.4,0.3,1,0.5,1.4l0,0c0.1-0.5,0.2-0.9,0.4-1.4l1.4-4.4h1.2l-2.5,7.6h-1l-1.2-3.3c-0.2-0.5-0.3-0.9-0.4-1.4l0,0
	c-0.1,0.5-0.3,0.9-0.4,1.4l-1.2,3.3h-1L148.9,36.4z"/>
<path d="M165.1,43.4c-0.4,0.4-0.9,0.7-1.6,0.7c-1,0-1.8-0.7-1.8-1.7c0-0.7,0.4-1.2,0.9-1.5c0.4-0.2,0.8-0.3,1.4-0.3h1v-0.2
	c0-0.7-0.4-1-1.1-1c-0.6,0-1.1,0.2-1.4,0.4l-0.4-0.8c0.6-0.4,1.3-0.5,2-0.5c1.3,0,2.1,0.6,2.1,1.9v2.1c0,0.8,0,1.3,0.1,1.5h-1
	L165.1,43.4z M164.2,41.4c-0.4,0-0.7,0.1-0.9,0.2c-0.3,0.1-0.4,0.4-0.4,0.7c0,0.5,0.3,0.8,0.9,0.8c0.5,0,1-0.3,1.2-0.5v-1.2H164.2z"
	/>
<path d="M170.3,42.7v-3.2h-1v-0.9h1v-1.3l1.2-0.4v1.6h1.6l-0.3,0.9h-1.3v2.9c0,0.5,0.2,0.7,0.5,0.7s0.6-0.1,0.8-0.3l0.4,0.8
	c-0.4,0.3-1,0.4-1.5,0.4C170.9,44.1,170.3,43.5,170.3,42.7"/>
<path d="M176.2,41.2c0-1.6,0.9-2.8,2.4-2.8s2.3,1.1,2.3,2.9v0.3h-3.5c0,0.9,0.6,1.6,1.6,1.6c0.5,0,1-0.2,1.4-0.4l0.4,0.8
	c-0.5,0.3-1.2,0.5-1.8,0.5C177,44.1,176.2,42.7,176.2,41.2 M179.7,40.7c0-0.7-0.4-1.4-1.1-1.4c-0.7,0-1.1,0.6-1.2,1.4H179.7z"/>
<path d="M184.3,38.5h1l0.1,0.6c0.5-0.5,1-0.8,1.5-0.8c0.2,0,0.5,0.1,0.7,0.2l-0.4,1c-0.2-0.1-0.4-0.1-0.6-0.1
	c-0.4,0-0.7,0.2-1.2,0.6v3.9h-1.2L184.3,38.5L184.3,38.5z"/>
<path d="M27.8,13.9c0,7.7-6.2,13.9-13.9,13.9S0,21.6,0,13.9S6.2,0,13.9,0C21.6,0,27.8,6.2,27.8,13.9"/>
<path class="st0" d="M20.3,13.6c0.3,0.8,0.4,2.1,0.4,3.2c0,3.8-3.1,6.9-6.9,6.9c-1.3,0-2.5-0.4-3.6-1c1.2,0.1,2.3-0.3,3.3-1.1
	c1.7-1.3,2.8-3.5,2.8-5.6c0-2.8-1.1-4.2-1.9-5.4c-0.2-0.2-0.3-0.4-0.5-0.7c-0.3-0.5-0.7-1-1.1-1.5l0.1,0.1c-0.3-0.5-0.6-1-0.7-1.5
	c-0.2-0.8,0.1-1.6,0.3-1.9c0.4-0.8,1-1.9,1.3-2.8L14,2.8c0.4,0.9,0.8,2,1.4,3c0.6,0.9,1.2,1.8,1.8,2.6C18.4,9.9,19.7,11.5,20.3,13.6
	"/>
<path class="st0" d="M13,21.4c-2.1-1.4-2.8-3.7-1.9-6.9c0.3-1.1,0.7-1.9,1.1-2.7c0.2-0.3,0.5-1.2-0.4-2.5c-0.4-0.6-0.8-1.1-1-1.5
	c-1.4,1.8-2.6,3.5-3.4,5.8C7.1,14.5,7,16.1,7,16.8c0,2.1,1,4,2.5,5.3C10.8,22.4,12.2,21.9,13,21.4"/>
<path d="M36.1,20.1c1.1,0.7,2.6,1.4,4.3,1.4c1.8,0,3.5-0.7,3.5-2.6c0-4.1-8.5-3.6-8.5-9.6c0-2.9,2.3-5.3,6.2-5.3
	c1.9,0,3.6,0.4,4.6,1v2.8c-1.5-0.7-3-1.2-4.5-1.2S38.8,7.2,38.8,9c0,3.9,8.5,3.4,8.5,9.6c0,3.4-2.8,5.5-6.8,5.5
	c-2.3,0-4.3-0.7-5.7-1.6L36.1,20.1z"/>
<path d="M59.3,4.1h2.4l7.8,19.7h-3.4l-1.9-5h-7.3l-1.9,5h-3.3L59.3,4.1z M63.2,16.2l-1.6-4.5c-0.5-1.6-0.8-2.5-1-3.2h-0.1
	c-0.2,0.7-0.5,1.6-1.1,3.2l-1.5,4.5H63.2z"/>
<path d="M89.5,23.8l-8.8-11.6C79.7,11,79,9.9,78.3,9h-0.1c0.1,0.9,0.1,1.9,0.1,3.2v11.7h-3.1V4.2h3.1l8.5,11.2
	c1,1.3,1.8,2.4,2.4,3.3h0.1c0-1-0.1-2.1-0.1-3.4V4.2h3.1v19.6H89.5z"/>
<polygon points="103.7,6.9 98,6.9 98,4.2 113,4.2 112.1,6.9 106.8,6.9 106.8,23.8 103.7,23.8 "/>
<polygon points="118.5,4.2 130.4,4.2 129.5,6.9 121.6,6.9 121.6,12.5 129.5,12.5 129.5,15.2 121.6,15.2 121.6,21.2 130.5,21.2 
	130.5,23.8 118.5,23.8 "/>
<path d="M135.8,4.2h3.4l4.3,11.1c0.6,1.6,1,2.9,1.5,4.1h0.1c0.4-1.2,0.8-2.5,1.5-4.1l4.3-11.1h3.4L146.4,24h-2.5L135.8,4.2z"/>
<rect x="159.7" y="4.2" width="3.1" height="19.6"/>
<path d="M176,4.1h2.4l7.8,19.7h-3.4l-1.9-5h-7.3l-1.9,5h-3.3L176,4.1z M179.9,16.2l-1.6-4.5c-0.5-1.6-0.8-2.5-1-3.2h-0.1
	c-0.2,0.7-0.5,1.6-1.1,3.2l-1.6,4.5H179.9z"/>
<path d="M190.9,6.4c0,1.4-1.1,2.5-2.5,2.5s-2.5-1.1-2.5-2.5s1.1-2.5,2.5-2.5C189.8,4,190.9,5.1,190.9,6.4 M186.5,6.4
	c0,1.1,0.8,2,1.9,2c1.1,0,1.9-0.9,1.9-1.9c0-1.1-0.8-2-1.9-2C187.3,4.5,186.5,5.3,186.5,6.4 M188,7.7h-0.6V5.2
	c0.2,0,0.5-0.1,0.9-0.1c0.5,0,0.7,0.1,0.9,0.2c0.1,0.1,0.2,0.3,0.2,0.5c0,0.3-0.2,0.5-0.5,0.6l0,0c0.2,0.1,0.4,0.3,0.4,0.6
	c0.1,0.4,0.1,0.5,0.2,0.6h-0.6c-0.1-0.1-0.1-0.3-0.2-0.6c0-0.3-0.2-0.4-0.5-0.4h-0.3v1.1H188z M188,6.3h0.3c0.3,0,0.6-0.1,0.6-0.4
	c0-0.2-0.2-0.4-0.5-0.4c-0.1,0-0.3,0-0.3,0v0.8H188z"/>
</svg>
