<svg id="Layer_1" data-name="Layer 1" xmlns="http://www.w3.org/2000/svg" viewBox="0 0 80 79.75"><defs><style>.cls-1{fill:#fff;}.cls-2{fill:#a3d7cf;}</style></defs><title>Icons</title><circle class="cls-1" cx="39.94" cy="39.88" r="38.14"/><circle class="cls-2" cx="39" cy="39.83" r="16.54"/><path d="M39.94,79.24A39.58,39.58,0,1,1,79.52,39.66,39.62,39.62,0,0,1,39.94,79.24Zm0-76.16A36.58,36.58,0,1,0,76.52,39.66,36.62,36.62,0,0,0,39.94,3.08Z"/><path d="M37.68,40.44H27.13a1.07,1.07,0,1,1,0-2.14H37.68A1.07,1.07,0,1,1,37.68,40.44Z"/><path d="M41,29.24H27.12a1.07,1.07,0,1,1,0-2.14H41A1.07,1.07,0,1,1,41,29.24Z"/><path d="M45.45,44.29H31.55a1.07,1.07,0,1,1,0-2.14H45.45A1.07,1.07,0,1,1,45.45,44.29Z"/><path d="M52.44,51.21H38.53a1.07,1.07,0,1,1,0-2.14H52.44A1.07,1.07,0,1,1,52.44,51.21Z"/><path d="M32.19,51.21H27.12a1.07,1.07,0,1,1,0-2.14h5.06A1.07,1.07,0,1,1,32.19,51.21Z"/><path d="M39.5,23.69h0a15.75,15.75,0,1,0,11.18,4.63A15.81,15.81,0,0,0,39.5,23.69Zm0,33.76h0A18,18,0,1,1,52.2,52.2,18,18,0,0,1,39.5,57.45Z"/></svg>
