<?xml version="1.0" encoding="utf-8"?>
<!-- Generator: Adobe Illustrator 21.0.2, SVG Export Plug-In . SVG Version: 6.00 Build 0)  -->
<svg version="1.1" id="Layer_1" xmlns="http://www.w3.org/2000/svg" xmlns:xlink="http://www.w3.org/1999/xlink" x="0px" y="0px"
	 viewBox="0 0 80 79.8" style="enable-background:new 0 0 80 79.8;" xml:space="preserve">
<style type="text/css">
	.st0{fill:#A3D7CF;stroke:#000000;stroke-width:2;stroke-miterlimit:10;}
	.st1{fill:#FFFFFF;}
	.st2{fill:#A3D7CF;}
	.st3{fill-rule:evenodd;clip-rule:evenodd;fill:#98D0C6;}
	.st4{fill:#98D0C6;}
	.st5{fill:none;stroke:#000000;stroke-width:3;stroke-miterlimit:10;}
	.st6{fill-rule:evenodd;clip-rule:evenodd;}
	.st7{fill:#A3D7CF;stroke:#000000;stroke-width:4;stroke-miterlimit:10;}
	.st8{fill:none;stroke:#000000;stroke-width:2;stroke-miterlimit:10;}
</style>
<circle class="st1" cx="39.9" cy="39.9" r="38.1"/>
<path d="M39.9,79.1c-21.8,0-39.6-17.8-39.6-39.6S18.1-0.1,39.9-0.1s39.6,17.8,39.6,39.6S61.8,79.1,39.9,79.1z M39.9,2.9
	C19.8,2.9,3.4,19.3,3.4,39.5s16.4,36.6,36.6,36.6s36.6-16.4,36.6-36.6S60.1,2.9,39.9,2.9z"/>
<g>
	<polygon class="st3" points="40.3,21.7 22.6,52.2 57.4,52.2 	"/>
</g>
<path d="M59.1,51.2L42,20.7l-1.7-3.1l-1.8,3L20.9,51.2l-1.7,3h3.5h34.7h3.4L59.1,51.2z M47.5,34.5l-10,17.7h-4l12-21.2L47.5,34.5z
	 M40.3,21.7l4.1,7.2L31.2,52.2h-8.5L40.3,21.7z M39.8,52.2l8.8-15.6l8.8,15.6H39.8z"/>
</svg>
