<?xml version="1.0" encoding="utf-8"?>
<!-- Generator: Adobe Illustrator 21.0.2, SVG Export Plug-In . SVG Version: 6.00 Build 0)  -->
<svg version="1.1" id="Layer_1" xmlns="http://www.w3.org/2000/svg" xmlns:xlink="http://www.w3.org/1999/xlink" x="0px" y="0px"
	 viewBox="0 0 80 79.8" style="enable-background:new 0 0 80 79.8;" xml:space="preserve">
<style type="text/css">
	.st0{fill:#A3D7CF;stroke:#000000;stroke-width:2;stroke-miterlimit:10;}
	.st1{fill:#FFFFFF;}
	.st2{fill:#A3D7CF;}
	.st3{fill-rule:evenodd;clip-rule:evenodd;fill:#98D0C6;}
	.st4{fill:#98D0C6;}
	.st5{fill:none;stroke:#000000;stroke-width:3;stroke-miterlimit:10;}
	.st6{fill-rule:evenodd;clip-rule:evenodd;}
	.st7{fill:#A3D7CF;stroke:#000000;stroke-width:4;stroke-miterlimit:10;}
	.st8{fill:none;stroke:#000000;stroke-width:2;stroke-miterlimit:10;}
</style>
<circle class="st1" cx="39.9" cy="39.9" r="38.1"/>
<path d="M39.9,79.1c-21.8,0-39.6-17.8-39.6-39.6S18.1-0.1,39.9-0.1s39.6,17.8,39.6,39.6S61.8,79.1,39.9,79.1z M39.9,2.9
	C19.8,2.9,3.4,19.3,3.4,39.5s16.4,36.6,36.6,36.6s36.6-16.4,36.6-36.6S60.1,2.9,39.9,2.9z"/>
<g>
	<path class="st2" d="M58.8,49.2C58.8,42,52.9,35,45.6,35h-3.3v-6.6h6.6v-6.6H29.2v6.6h6.6V35H19.4v7.7h26.3c3.6,0,6.6,2.9,6.6,6.6
		v1.6h6.6V49.2z"/>
	<path d="M48.9,21.9v6.6h-6.6V35h3.3c7.2,0,13.1,7,13.1,14.2v1.6h-6.6v-1.6c0-3.6-2.9-6.6-6.6-6.6H19.4V35h16.4v-6.6h-6.6v-6.6H48.9
		 M51.1,19.7h-2.2H29.2H27v2.2v6.6v2.2h2.2h4.4v2.1H19.4h-2.2V35v7.7v2.2h2.2h26.3c2.4,0,4.4,2,4.4,4.4v1.6v2.2h2.2h6.6H61v-2.2
		v-1.6c0-8.5-6.9-16.4-15.3-16.4h-1.1v-2.1h4.4h2.2v-2.2v-6.6V19.7L51.1,19.7z"/>
</g>
<path d="M51.5,62c0,2.2,1.9,4,4.1,4c2.3,0,4.1-1.8,4.1-4c0-3.4-4.1-6.4-4.1-6.4S51.5,58.6,51.5,62z"/>
</svg>
