<?xml version="1.0" encoding="utf-8"?>
<!-- Generator: Adobe Illustrator 21.0.2, SVG Export Plug-In . SVG Version: 6.00 Build 0)  -->
<svg version="1.1" id="Layer_1" xmlns="http://www.w3.org/2000/svg" xmlns:xlink="http://www.w3.org/1999/xlink" x="0px" y="0px"
	 viewBox="0 0 80 79.8" style="enable-background:new 0 0 80 79.8;" xml:space="preserve">
<style type="text/css">
	.st0{fill:#A3D7CF;stroke:#000000;stroke-width:2;stroke-miterlimit:10;}
	.st1{fill:#FFFFFF;}
	.st2{fill:#A3D7CF;}
	.st3{fill-rule:evenodd;clip-rule:evenodd;fill:#98D0C6;}
	.st4{fill:#98D0C6;}
	.st5{fill:none;stroke:#000000;stroke-width:3;stroke-miterlimit:10;}
	.st6{fill-rule:evenodd;clip-rule:evenodd;}
	.st7{fill:#A3D7CF;stroke:#000000;stroke-width:4;stroke-miterlimit:10;}
	.st8{fill:none;stroke:#000000;stroke-width:2;stroke-miterlimit:10;}
</style>
<circle class="st1" cx="39.9" cy="39.9" r="38.1"/>
<path d="M39.9,79.1c-21.8,0-39.6-17.8-39.6-39.6S18.1-0.1,39.9-0.1s39.6,17.8,39.6,39.6S61.8,79.1,39.9,79.1z M39.9,2.9
	C19.8,2.9,3.4,19.3,3.4,39.5s16.4,36.6,36.6,36.6s36.6-16.4,36.6-36.6S60.1,2.9,39.9,2.9z"/>
<path class="st0" d="M49.4,48.3l-14.2,4.8c-5.4,1.8-11.4-1.1-13.2-6.5l0,0c-1.8-5.4,1.1-11.4,6.5-13.2l14.2-4.8
	c5.4-1.8,11.4,1.1,13.2,6.5l0,0C57.8,40.5,54.8,46.4,49.4,48.3z"/>
<path d="M47.8,37.2c1,3.1-3.6,4.7-4.6,1.6C42.1,35.7,46.7,34.1,47.8,37.2"/>
<path d="M43.5,44.3c1,3.1-3.6,4.7-4.6,1.6C37.8,42.8,42.5,41.3,43.5,44.3"/>
<path d="M34.9,42.9c1,3.1-3.6,4.7-4.6,1.6C29.3,41.4,33.9,39.8,34.9,42.9"/>
<path d="M40.6,37.3c1,3.1-3.6,4.7-4.6,1.6C34.9,35.7,39.5,34.2,40.6,37.3"/>
<path class="st8" d="M39.3,29.7c0,0,1-3.3,0.8-4.8c-0.1-1.5-1.7-3.8-1.7-3.8"/>
<path class="st8" d="M31,31.9l-1.2-4.2c-1.2-1.7-3.4-2.1-3.4-2.1"/>
<path class="st8" d="M23.6,36.8l-3.4-2.1c-1.7-1-5.9-0.7-5.9-0.7"/>
<path class="st8" d="M21.9,46.6c0,0-0.4,2.1-3.3,3.1s-4.5-0.4-4.5-0.4"/>
<path class="st8" d="M29.9,53.4c0,0,0.1,1.7-1.1,3.9c-1.2,2.2-2.9,3.8-2.9,3.8"/>
<path class="st8" d="M38.8,51.9c0,0,1.2,2.9,1.4,4.1s0,5,0,5"/>
<path class="st8" d="M47.2,49c0,0,2.9,2.6,3.3,3.8c0.4,1.2,0.9,4.1,0.9,4.1"/>
<path class="st8" d="M54.8,44c0,0,2.8,0.6,3.9,1.1c1,0.5,2.6,2.1,2.6,2.1"/>
<path class="st8" d="M55.9,35.1c0,0,1.5-2,2.4-2.6c0.9-0.6,3.9-1.5,3.9-1.5"/>
<path class="st8" d="M48.7,28.3c0,0,2-2.2,2.7-3.8c0.7-1.6,0.9-4.5,0.9-4.5"/>
</svg>
