<svg id="Layer_1" data-name="Layer 1" xmlns="http://www.w3.org/2000/svg" viewBox="0 0 80 79.75"><defs><style>.cls-1{fill:#fff;}.cls-2{fill:#98d0c6;}</style></defs><title>Icons</title><circle class="cls-1" cx="39.94" cy="39.88" r="38.14"/><path class="cls-2" d="M39.93,21.94c.71,1.67,1.32,3.36,2.12,5C44,30.75,46,34.55,47.9,38.39a33.36,33.36,0,0,1,2.26,5A10.56,10.56,0,0,1,41.69,56.9a10.68,10.68,0,0,1-12.35-9.14,11.37,11.37,0,0,1,1.26-6.68c2.05-4,4.15-8,6.14-12,1.1-2.23,2-4.54,3-6.82l.15-.33"/><path d="M39.9,26.44c-.61,1.4-1.22,2.81-1.9,4.17-1.38,2.81-2.83,5.59-4.27,8.37l-1.88,3.65a10,10,0,0,0-1.12,5.87,9,9,0,0,0,3.61,6.18,9.33,9.33,0,0,0,13.51-2.51,9,9,0,0,0,1-7.43,25.25,25.25,0,0,0-1.76-4l-.41-.82q-1.34-2.66-2.71-5.31c-1.06-2.06-2.12-4.12-3.15-6.19-.32-.65-.61-1.31-.9-2M40,59.35a12.23,12.23,0,0,1-7.31-2.43A11.79,11.79,0,0,1,28,48.84a12.76,12.76,0,0,1,1.4-7.49l1.89-3.65c1.43-2.77,2.86-5.53,4.24-8.32.75-1.52,1.42-3.07,2.08-4.62l2.24-5.1,1.41,2.64.67,1.62c.45,1.1.89,2.21,1.41,3.27,1,2.06,2.08,4.11,3.13,6.15q1.37,2.66,2.72,5.34l.41.8a28,28,0,0,1,1.94,4.45,11.87,11.87,0,0,1-1.27,9.73A12.1,12.1,0,0,1,40,59.35"/><path d="M39.94,79.08A39.58,39.58,0,1,1,79.52,39.5,39.62,39.62,0,0,1,39.94,79.08Zm0-76.16A36.58,36.58,0,1,0,76.52,39.5,36.62,36.62,0,0,0,39.94,2.92Z"/></svg>
