<?xml version="1.0" encoding="utf-8"?>
<!-- Generator: Adobe Illustrator 21.0.2, SVG Export Plug-In . SVG Version: 6.00 Build 0)  -->
<svg version="1.1" id="Layer_1" xmlns="http://www.w3.org/2000/svg" xmlns:xlink="http://www.w3.org/1999/xlink" x="0px" y="0px"
	 viewBox="0 0 80 79.8" style="enable-background:new 0 0 80 79.8;" xml:space="preserve">
<style type="text/css">
	.st0{fill:#A3D7CF;stroke:#000000;stroke-width:2;stroke-miterlimit:10;}
	.st1{fill:#FFFFFF;}
	.st2{fill:#A3D7CF;}
	.st3{fill-rule:evenodd;clip-rule:evenodd;fill:#98D0C6;}
	.st4{fill:#98D0C6;}
	.st5{fill:none;stroke:#000000;stroke-width:3;stroke-miterlimit:10;}
	.st6{fill-rule:evenodd;clip-rule:evenodd;}
	.st7{fill:#A3D7CF;stroke:#000000;stroke-width:4;stroke-miterlimit:10;}
	.st8{fill:none;stroke:#000000;stroke-width:2;stroke-miterlimit:10;}
</style>
<circle class="st1" cx="39.9" cy="39.9" r="38.1"/>
<path d="M39.9,79.1c-21.8,0-39.6-17.8-39.6-39.6S18.1-0.1,39.9-0.1s39.6,17.8,39.6,39.6S61.8,79.1,39.9,79.1z M39.9,2.9
	C19.8,2.9,3.4,19.3,3.4,39.5s16.4,36.6,36.6,36.6s36.6-16.4,36.6-36.6S60.1,2.9,39.9,2.9z"/>
<g>
	<polygon class="st4" points="35.1,58.2 35.1,44.8 21.7,44.8 21.7,34.9 35.1,34.9 35.1,21.6 44.9,21.6 44.9,34.9 58.3,34.9 
		58.3,44.8 44.9,44.8 44.9,58.2 	"/>
	<path d="M43.9,22.6v13.4h13.4v7.9H43.9v13.4h-7.9V43.8H22.7v-7.9h13.4V22.6H43.9 M45.9,20.6h-2h-7.9h-2v2v11.4H22.7h-2v2v7.9v2h2
		h11.4v11.4v2h2h7.9h2v-2V45.8h11.4h2v-2v-7.9v-2h-2H45.9V22.6V20.6L45.9,20.6z"/>
</g>
</svg>
