<svg id="Layer_1" data-name="Layer 1" xmlns="http://www.w3.org/2000/svg" viewBox="0 0 80 79.75"><defs><style>.cls-1{fill:#fff;}.cls-2{fill:#98d0c6;}.cls-3{fill-rule:evenodd;}</style></defs><title>Icons</title><circle class="cls-1" cx="39.94" cy="39.88" r="38.14"/><circle class="cls-2" cx="29.26" cy="24.83" r="5.32"/><circle class="cls-2" cx="48.49" cy="24.83" r="5.32"/><circle class="cls-2" cx="57.34" cy="40.62" r="5.32"/><circle class="cls-2" cx="48.49" cy="57.12" r="5.32"/><circle class="cls-2" cx="29.26" cy="57.12" r="5.32"/><circle class="cls-2" cx="20.43" cy="40.98" r="5.32"/><path d="M39.94,79.08A39.58,39.58,0,1,1,79.52,39.5,39.62,39.62,0,0,1,39.94,79.08Zm0-76.16A36.58,36.58,0,1,0,76.52,39.5,36.62,36.62,0,0,0,39.94,2.92Z"/><path class="cls-3" d="M29.56,20.54a4.15,4.15,0,1,0,4.15,4.15A4.15,4.15,0,0,0,29.56,20.54Zm-13,20.15a4.15,4.15,0,1,0,4.15-4.15A4.15,4.15,0,0,0,16.53,40.7Zm13-9a7,7,0,0,1-2.08-.31l-2.24,4a7,7,0,1,1-4.56-1.68,7.06,7.06,0,0,1,2,.3L25,30a7,7,0,1,1,4.58,1.7ZM48,20.54a4.15,4.15,0,1,0,4.15,4.15A4.15,4.15,0,0,0,48,20.54Zm0,11.15a7,7,0,1,1,7-7A7,7,0,0,1,48,31.69Zm9,4.86a4.15,4.15,0,1,0,4.15,4.15A4.15,4.15,0,0,0,57.07,36.55ZM48,52.42a4.15,4.15,0,1,0,4.15,4.15A4.15,4.15,0,0,0,48,52.42Zm-18.48,0a4.15,4.15,0,1,0,4.15,4.15A4.15,4.15,0,0,0,29.56,52.42Zm27.5-4.71a7,7,0,0,1-2-.3l-2.25,4A7,7,0,1,1,41.17,58H36.44a7,7,0,1,1,0-2.86h4.73a7,7,0,0,1,9.17-5.19L52.53,46a7,7,0,1,1,4.54,1.67Z"/></svg>
