<svg id="Layer_1" data-name="Layer 1" xmlns="http://www.w3.org/2000/svg" viewBox="0 0 80 79.75"><defs><style>.cls-1{fill:#fff;}.cls-2{fill:#a3d7cf;}</style></defs><title>Icons</title><circle class="cls-1" cx="39.94" cy="39.88" r="38.14"/><path d="M39.94,79.24A39.58,39.58,0,1,1,79.52,39.66,39.62,39.62,0,0,1,39.94,79.24Zm0-76.16A36.58,36.58,0,1,0,76.52,39.66,36.62,36.62,0,0,0,39.94,3.08Z"/><path class="cls-2" d="M23.75,27A10.82,10.82,0,0,1,39.07,27l.87.89.87-.87A10.8,10.8,0,0,1,56.12,27,10.59,10.59,0,0,1,56,41.79l-1.07,1.07L40.47,57.3a.75.75,0,0,1-1.07,0L23.9,41.79A10.59,10.59,0,0,1,23.75,27Z"/><path d="M31.29,26.81h0a8,8,0,0,1,5.64,2.3l.87.89,2.12,2.16L42.06,30l.88-.88a8,8,0,0,1,5.66-2.33A7.36,7.36,0,0,1,54,29a7.59,7.59,0,0,1-.11,10.63l-1.07,1.07L39.94,53.59,26,39.67A7.59,7.59,0,0,1,25.91,29a7.37,7.37,0,0,1,5.37-2.23m0-3A10.39,10.39,0,0,0,23.75,27a10.59,10.59,0,0,0,.14,14.83L39.4,57.3a.75.75,0,0,0,1.07,0L54.91,42.86,56,41.79A10.59,10.59,0,0,0,56.12,27a10.38,10.38,0,0,0-7.53-3.15A11,11,0,0,0,40.81,27l-.87.87L39.07,27a11,11,0,0,0-7.78-3.2Z"/></svg>
